<svg xmlns="http://www.w3.org/2000/svg" viewBox="0 0 256 256" fill="none">
<defs>
<linearGradient id="g" x1="0" y1="0" x2="1" y2="1">
<stop offset="0%" stop-color="#38bdf8"/>
<stop offset="100%" stop-color="#a78bfa"/>
</linearGradient>
</defs>
<rect rx="28" width="256" height="256" fill="#0b1220"/>
<path d="M56 168c0-44 36-80 80-80 24 0 46 10 61 27l-23 20c-9-11-23-18-38-18-28 0-50 22-50 50h-30z" fill="url(#g)"/>
<path d="M200 88c0 44-36 80-80 80-24 0-46-10-61-27l23-20c9 11 23 18 38 18 28 0 50-22 50-50h30z" fill="url(#g)" opacity=".6"/>
<circle cx="204" cy="204" r="20" fill="#38bdf8"/>
</svg>
